<svg width="28" height="22" viewBox="0 0 28 22" fill="none" xmlns="http://www.w3.org/2000/svg">
<path d="M6.77708 21.8456C4.96995 21.8456 3.47262 21.226 2.28508 19.9868C1.14917 18.696 0.581214 16.9922 0.581214 14.8753C0.581214 10.1251 2.13018 6.40757 5.22811 3.7227C6.57055 2.48353 8.11952 1.55415 9.87501 0.934559L10.6495 2.87076C9.56522 3.23219 8.48094 3.82596 7.39666 4.65208C5.12485 6.35594 3.75659 8.60194 3.2919 11.3901L4.29873 10.8479C5.12485 10.4349 5.95096 10.2284 6.77708 10.2284C8.32604 10.2284 9.66848 10.8221 10.8044 12.0097C11.9919 13.1456 12.5857 14.488 12.5857 16.037C12.5857 17.5859 11.9919 18.9542 10.8044 20.1417C9.66848 21.2776 8.32604 21.8456 6.77708 21.8456ZM21.4923 21.8456C19.6851 21.8456 18.1878 21.226 17.0003 19.9868C15.8643 18.696 15.2964 16.9922 15.2964 14.8753C15.2964 10.1251 16.8454 6.40757 19.9433 3.7227C21.2341 2.48353 22.7831 1.55415 24.5902 0.934559L25.3647 2.87076C24.2804 3.23219 23.1961 3.82596 22.1118 4.65208C19.84 6.35594 18.4718 8.60194 18.0071 11.3901L19.0139 10.8479C19.84 10.4349 20.6661 10.2284 21.4923 10.2284C23.0412 10.2284 24.3837 10.8221 25.5196 12.0097C26.7071 13.1456 27.3009 14.488 27.3009 16.037C27.3009 17.5859 26.7071 18.9542 25.5196 20.1417C24.3837 21.2776 23.0412 21.8456 21.4923 21.8456Z" fill="#6232E9"/>
</svg>
