<svg width="397" height="316" viewBox="0 0 397 316" fill="none" xmlns="http://www.w3.org/2000/svg">
<path d="M276.243 277.343C276.243 277.343 216.252 282.582 200.381 263.483C184.511 244.383 197.961 214.907 215.463 203.114C227.615 194.931 236.927 185.995 243.275 179.704C251.254 171.802 257.181 165.933 259.654 155.052C264.564 133.394 254.814 126.038 242.013 117.767C223.827 106.028 178.5 126.791 143 144.791C107.5 162.791 53.5 263.483 53.5 263.483" stroke="#282E30" stroke-width="4.61812" stroke-miterlimit="10"/>
<path d="M39.5593 282.268C39.6275 281.317 57.6783 251.112 57.6783 251.112L64.6681 252.246L47.8382 281.194L39.5593 282.268Z" fill="#282E30"/>
<path d="M17.4018 288.858L74.7228 290.469L73.9346 286.52C73.0966 282.293 67.4288 279.303 63.082 279.225L28.4419 278.525C24.6546 278.45 21.167 280.646 19.5919 284.085L17.4018 288.858Z" fill="#282E30"/>
<path d="M18.8778 285.625L74.2121 287.297L73.4239 283.349C72.586 279.122 68.9049 276.069 64.5581 275.992L29.918 275.292C26.1306 275.217 22.6431 277.412 21.068 280.852L18.8778 285.625Z" fill="#99E7FF"/>
<path d="M273.946 283.388L290.518 281.986L289.536 270.474L272.947 271.858L273.946 283.388Z" fill="#1A1E21"/>
<path d="M347.002 286.7L296.427 290.922C286.765 291.728 278.979 283.265 280.768 273.891L285.765 247.642C287.484 238.671 295.06 231.925 304.319 231.154L358.068 226.651C369.431 225.705 379.444 233.993 380.409 245.172L383.741 283.633L347.002 286.7Z" fill="#99E7FF"/>
<path d="M284.434 254.669L354.737 248.799" stroke="white" stroke-width="2.63895" stroke-miterlimit="10"/>
<path d="M335.516 271C334.078 254.406 346.599 239.828 363.469 238.408C380.339 236.989 395.175 249.307 396.613 265.883C397.139 271.999 395.771 277.833 392.983 282.845L342.005 287.103C338.392 282.635 336.042 277.115 335.516 271Z" fill="#D3E5FF"/>
<path d="M343.109 270.369C344.197 282.827 355.332 292.079 368.011 291.01C380.69 289.941 390.089 278.99 389.02 266.514C387.932 254.056 376.797 244.804 364.118 245.873C351.422 246.942 342.022 257.911 343.109 270.369Z" fill="#3C4149"/>
<path d="M356.507 269.248C356.963 274.434 361.593 278.272 366.871 277.834C372.15 277.395 376.06 272.822 375.604 267.653C375.148 262.466 370.519 258.629 365.24 259.067C359.979 259.505 356.069 264.061 356.507 269.248Z" fill="#1A1E21"/>
<path d="M269.916 176.612C266.54 176.612 263.804 173.875 263.804 170.5C263.804 167.124 266.54 164.387 269.916 164.387C273.291 164.387 276.028 167.124 276.028 170.5C276.028 173.875 273.291 176.612 269.916 176.612Z" fill="#F5EBDD"/>
<path d="M269.916 163.731V168.683" stroke="#A7756A" stroke-width="1.36812" stroke-miterlimit="10" stroke-linecap="round"/>
<path d="M243.408 17.7348C249.5 21.6511 245.388 29.9556 239.776 30.2839C237.622 35.3104 237.386 40.9518 239.112 46.1405H230.561L230.531 42.5389C222.712 44.4851 219.832 41.4136 218.317 38.6398C216.606 35.4931 217.113 32.5482 217.698 28.7209C217.698 28.7209 214.903 27.6093 215.115 25.923C215.286 24.5549 218.265 24.0521 218.265 24.0521C218.31 23.4502 218.341 22.8277 218.358 22.1812C218.388 20.4654 218.514 18.7526 218.734 17.0508C225.301 20.5497 233.479 22.3659 233.479 22.3659C233.479 22.3659 238.784 14.7592 243.408 17.7348Z" fill="#FFD9CE"/>
<path d="M141.62 142.21C138.039 143.578 135.398 141.27 136.058 139.946C136.489 139.084 148.881 129.788 161.67 120.341L176.319 138.609C172.957 139.898 170.74 140.627 170.74 140.627C170.74 140.627 167.108 146.239 161.82 149.543C161.82 149.543 156.207 163.084 153.235 162.756C151.238 162.534 153.895 154.828 154.555 151.524C154.555 151.524 147.947 162.756 143.655 162.756C142.663 162.756 141.75 162.072 141.675 160.444C141.675 160.444 139.496 161.043 138.699 159.452C138.357 158.792 138.357 157.8 138.357 157.14C138.357 157.14 136.647 157.615 135.713 156.48C134.14 154.578 137.587 148.292 141.62 142.21Z" fill="#FFD9CE"/>
<path d="M279.41 84.1263C279.584 83.9758 279.778 83.8116 279.995 83.6338C279.804 83.798 279.612 83.9621 279.41 84.1263Z" fill="#99E7FF"/>
<path d="M189.891 99.6511C189.891 99.6511 205.132 64.5759 211.36 56.3808C217.643 48.1207 230.592 48.5722 230.592 48.5722L230.572 46.1404H239.123C239.123 46.1404 229.888 64.6374 247.383 72.5657C253.987 94.035 274.468 88.4188 279.421 84.1264C281.405 87.7587 291.313 103.944 286.029 116.164C281.405 125.741 264.888 123.761 264.888 123.761L261.584 116.825H219.627H233.004L222.267 93.3886L218.621 102.292C218.621 102.292 213.987 114.17 204.088 123.433C197.019 130.047 183.806 135.715 176.305 138.591L161.656 120.341C175.553 110.083 189.891 99.6511 189.891 99.6511Z" fill="#99E7FF"/>
<path d="M263.691 101.833L270.494 104.936" stroke="#151414" stroke-width="1.36812" stroke-linecap="round" stroke-linejoin="round"/>
<path d="M261.245 118.148L265.681 88.2717" stroke="#151414" stroke-width="1.36812" stroke-linecap="round" stroke-linejoin="round"/>
<path d="M233.003 116.811L219.627 116.825L218.635 102.292L222.267 93.375L233.003 116.811Z" fill="#68C9FF"/>
<path d="M225.862 2.97968C229.19 1.11903 234.413 -0.731357 240.313 1.10535C251.131 4.47436 253.207 13.8426 254.637 20.047C255.629 24.3395 256.621 29.2819 256.621 29.2819C256.621 29.2819 275.118 30.6021 273.134 49.4309C282.967 51.6781 293.273 64.9112 285.368 77.5561C283.903 79.8439 282.09 81.8898 279.995 83.6203C279.778 83.7982 279.584 83.9624 279.41 84.1129C274.458 88.4054 253.977 94.0318 247.372 72.5522C229.864 64.6239 239.112 46.1269 239.112 46.1269C237.386 40.9381 237.622 35.2967 239.776 30.2703C245.388 29.9283 249.5 21.6375 243.408 17.7212C238.784 14.7455 233.489 22.3763 233.489 22.3763C233.489 22.3763 225.311 20.5601 218.744 17.0611C218.744 17.0611 218.744 17.0337 218.744 17.0235C218.744 17.0132 213.484 14.4856 212.037 9.79294C209.386 1.21822 220.287 -3.40604 225.862 2.97968Z" fill="#151414"/>
<path d="M219.145 102.801C221.019 98.3994 224.227 90.584 226.231 84.1265" stroke="#151414" stroke-width="1.36812" stroke-linecap="round" stroke-linejoin="round"/>
<path d="M155.03 151.897L156.207 149.195" stroke="#A7756A" stroke-width="1.36812" stroke-linecap="round" stroke-linejoin="round"/>
<path d="M141.664 160.157C143.812 157.355 148.272 151.079 151.925 146.222" stroke="#A7756A" stroke-width="1.36812" stroke-linecap="round" stroke-linejoin="round"/>
<path d="M137.902 156.736C140.529 152.874 144.554 146.817 147.287 142.921" stroke="#A7756A" stroke-width="1.36812" stroke-linecap="round" stroke-linejoin="round"/>
<path d="M140.84 142.06C142.075 140.165 143.46 138.103 144.944 136.013" stroke="#A7756A" stroke-width="1.36812" stroke-linecap="round" stroke-linejoin="round"/>
<path d="M224.959 2.72998C224.2 3.26697 223.351 3.89289 222.599 4.52223" stroke="#F5EBDD" stroke-width="1.36812" stroke-linecap="round" stroke-linejoin="round"/>
<path d="M257.455 29.6648L258.273 33.5879" stroke="#F5EBDD" stroke-width="1.36812" stroke-linecap="round" stroke-linejoin="round"/>
<path d="M273.808 50.05C273.275 52.7576 272.264 55.3485 270.822 57.7013" stroke="#F5EBDD" stroke-width="1.36812" stroke-linecap="round" stroke-linejoin="round"/>
<path d="M230.722 43.1818C232.035 42.7228 233.301 42.1411 234.505 41.4443" stroke="#A7756A" stroke-width="1.36812" stroke-linecap="round" stroke-linejoin="round"/>
<path d="M206.414 184.485C206.923 185.494 207.702 186.341 208.664 186.934C209.627 187.526 210.734 187.839 211.864 187.839C212.994 187.839 214.102 187.526 215.064 186.934C216.026 186.341 216.805 185.494 217.315 184.485C217.824 185.494 218.603 186.341 219.565 186.934C220.527 187.526 221.635 187.839 222.765 187.839C223.895 187.839 225.002 187.526 225.965 186.934C226.927 186.341 227.706 185.494 228.215 184.485C228.724 185.494 229.502 186.342 230.464 186.934C231.426 187.526 232.534 187.84 233.664 187.84C234.793 187.84 235.901 187.526 236.863 186.934C237.825 186.342 238.604 185.494 239.112 184.485C239.344 184.937 239.63 185.358 239.964 185.74C230.856 210.302 236.472 222.194 239.112 245.975C239.647 251.021 239.8 256.1 239.571 261.168H207.97C206.821 251.154 204.458 237.626 203.107 220.853C206.173 220.648 209.041 219.263 211.109 216.99C213.177 214.717 214.285 211.731 214.2 208.659C214.115 205.587 212.844 202.667 210.654 200.511C208.463 198.355 205.523 197.131 202.45 197.096C202.337 197.096 202.224 197.096 202.108 197.096C202.108 193.894 202.207 190.751 202.368 187.669C203.233 187.465 204.044 187.074 204.742 186.524C205.441 185.974 206.012 185.278 206.414 184.485Z" fill="#0B3EB8"/>
<path d="M206.199 282.422C199.134 287.636 196.718 290.82 197.306 294.961L215.373 294.063C215.373 294.063 221.988 287.755 226.745 286.624L226.752 286.638C229.905 285.817 233.127 285.289 236.377 285.062C237.588 276.883 238.062 268.613 237.794 260.35L210.367 261.563C212.068 272.42 211.806 278.285 206.199 282.422Z" fill="#6DB9FF"/>
<path d="M225.928 293.543L234.74 293.104C235.434 290.459 235.975 287.777 236.36 285.07C233.11 285.298 229.888 285.825 226.735 286.647L225.928 293.543Z" fill="#151414"/>
<path d="M210.393 272.887L216.453 272.443" stroke="#F5EBDD" stroke-width="1.64255" stroke-miterlimit="10" stroke-linecap="round"/>
<path d="M209.396 277.779L215.458 277.338" stroke="#F5EBDD" stroke-width="1.64255" stroke-miterlimit="10" stroke-linecap="round"/>
<path d="M292.114 275.994C287.922 283.71 287.082 287.617 289.368 291.12L305.355 282.654C305.355 282.654 308.676 274.138 312.506 271.099L312.518 271.108C315.026 269.029 317.722 267.186 320.569 265.603C318.202 257.682 315.129 249.989 311.386 242.617L287.054 255.334C293.193 264.448 295.44 269.872 292.114 275.994Z" fill="#6DB9FF"/>
<path d="M314.696 277.712L322.492 273.582C322.001 270.893 321.355 268.234 320.558 265.619C317.71 267.201 315.014 269.044 312.506 271.123L314.696 277.712Z" fill="#151414"/>
<path d="M291.874 265.581L297.176 262.612" stroke="#F5EBDD" stroke-width="1.64255" stroke-miterlimit="10" stroke-linecap="round"/>
<path d="M293.043 270.434L298.348 267.467" stroke="#F5EBDD" stroke-width="1.64255" stroke-miterlimit="10" stroke-linecap="round"/>
<path d="M243.819 187.793C243.624 187.769 243.429 187.738 243.237 187.697H243.196C243.011 187.654 242.83 187.602 242.652 187.543L242.563 187.519C242.375 187.451 242.187 187.379 242.006 187.293H241.982C241.801 187.208 241.64 187.116 241.452 187.013L241.421 186.992C241.243 186.887 241.071 186.773 240.905 186.65C240.566 186.394 240.255 186.103 239.978 185.782C239.643 185.4 239.357 184.978 239.126 184.526C238.617 185.535 237.839 186.383 236.877 186.975C235.915 187.568 234.807 187.881 233.677 187.881C232.548 187.881 231.44 187.568 230.478 186.975C229.516 186.383 228.737 185.535 228.229 184.526C227.72 185.535 226.941 186.383 225.978 186.975C225.016 187.567 223.908 187.88 222.779 187.88C221.649 187.88 220.541 187.567 219.579 186.975C218.617 186.383 217.837 185.535 217.328 184.526C216.819 185.535 216.04 186.383 215.078 186.975C214.116 187.567 213.008 187.88 211.878 187.88C210.748 187.88 209.641 187.567 208.678 186.975C207.716 186.383 206.937 185.535 206.428 184.526C206.027 185.319 205.457 186.015 204.76 186.566C204.062 187.116 203.253 187.508 202.388 187.714C202.891 178.437 204.047 169.207 205.846 160.092C208.315 160.772 210.896 160.946 213.434 160.605C215.971 160.263 218.414 159.413 220.615 158.104C230.093 152.69 232.467 126.196 233.014 116.814H261.573C278.09 131.679 277.758 175.941 280.898 185.645C280.984 185.912 281.073 186.168 281.158 186.425C280.452 187.01 279.623 187.429 278.733 187.65C277.843 187.871 276.914 187.889 276.016 187.701C275.118 187.514 274.274 187.127 273.547 186.568C272.819 186.01 272.227 185.294 271.814 184.475C271.305 185.484 270.526 186.331 269.563 186.923C268.601 187.516 267.494 187.829 266.364 187.829C265.234 187.829 264.126 187.516 263.164 186.923C262.202 186.331 261.423 185.484 260.913 184.475C260.404 185.484 259.625 186.331 258.663 186.923C257.701 187.516 256.593 187.829 255.463 187.829C254.333 187.829 253.226 187.516 252.263 186.923C251.301 186.331 250.522 185.484 250.013 184.475C249.349 185.786 248.236 186.816 246.876 187.375C246.521 187.524 246.152 187.639 245.775 187.717H245.72C245.563 187.748 245.406 187.772 245.245 187.789H245.115C244.934 187.789 244.749 187.817 244.564 187.817C244.38 187.817 244.157 187.817 243.955 187.786L243.819 187.793Z" fill="#151414"/>
<path d="M214.339 208.982C214.339 212.021 213.175 214.946 211.086 217.154C208.997 219.362 206.142 220.686 203.107 220.854C202.566 214.112 202.187 206.83 202.118 199.073C202.118 198.413 202.118 197.756 202.118 197.1C202.228 197.1 202.34 197.1 202.46 197.1C205.61 197.103 208.63 198.356 210.857 200.584C213.084 202.812 214.336 205.832 214.339 208.982Z" fill="#0B3EB8"/>
<path fill-rule="evenodd" clip-rule="evenodd" d="M252.263 186.934C251.301 186.341 250.522 185.494 250.013 184.485C249.348 185.804 248.229 186.839 246.863 187.399C247.955 190.601 249.668 195.564 252.03 201.262C251.956 201.293 251.882 201.324 251.808 201.357C254.479 207.634 257.586 213.727 261.109 219.591C261.836 220.783 262.585 221.977 263.346 223.172C263.34 223.176 263.334 223.179 263.328 223.183C266.937 228.951 270.891 234.717 274.683 240.245C278.781 246.221 282.69 251.919 285.765 257.044L314.154 242.613C311.211 235.615 307.654 228.892 303.523 222.522C298.329 214.571 294.462 208.925 291.502 204.603C285.493 195.83 283.22 192.512 281.158 186.435C280.452 187.02 279.623 187.439 278.733 187.66C277.843 187.881 276.914 187.899 276.016 187.712C275.118 187.524 274.274 187.137 273.547 186.578C272.819 186.02 272.227 185.304 271.814 184.485C271.305 185.494 270.526 186.341 269.563 186.934C268.601 187.526 267.493 187.839 266.364 187.839C265.234 187.839 264.126 187.526 263.164 186.934C262.201 186.341 261.422 185.494 260.913 184.485C260.404 185.494 259.625 186.341 258.663 186.934C257.701 187.526 256.593 187.839 255.463 187.839C254.333 187.839 253.225 187.526 252.263 186.934Z" fill="#0B3EB8"/>
<path d="M220.615 158.104C218.408 159.406 215.962 160.249 213.421 160.581C210.881 160.914 208.3 160.73 205.832 160.04C210.963 133.885 219.627 116.814 219.627 116.814H233.014C232.466 126.207 230.093 152.7 220.615 158.104Z" fill="#68C9FF"/>
<path d="M220.609 31.8949C221.183 32.1856 223.246 32.2711 223.933 30.6294" stroke="#A7756A" stroke-width="1.36812" stroke-linecap="round" stroke-linejoin="round"/>
<path d="M221.939 24.671C221.391 24.671 220.947 24.2269 220.947 23.6791C220.947 23.1313 221.391 22.6873 221.939 22.6873C222.487 22.6873 222.931 23.1313 222.931 23.6791C222.931 24.2269 222.487 24.671 221.939 24.671Z" fill="#A7756A"/>
<path d="M240.764 23.3474L237.464 25.6595" stroke="#A7756A" stroke-width="1.36812" stroke-linecap="round" stroke-linejoin="round"/>
<path d="M261.905 116.825H219.627" stroke="#151414" stroke-width="1.36812" stroke-miterlimit="10" stroke-linecap="round"/>
<path d="M249.77 117.816C249.77 117.816 242.033 128.878 245.666 130.071C249.024 131.173 249.685 122.913 249.77 117.816Z" stroke="#FFD9CE" stroke-width="1.36812" stroke-linecap="round" stroke-linejoin="round"/>
<path d="M250.009 117.816C250.009 117.816 253.977 127.735 256.949 126.073C258.885 124.999 253.977 120.139 250.009 117.816Z" stroke="#FFD9CE" stroke-width="1.36812" stroke-linecap="round" stroke-linejoin="round"/>
</svg>
