<?xml version="1.0" encoding="UTF-8" standalone="no"?>
<!DOCTYPE svg PUBLIC "-//W3C//DTD SVG 1.1//EN" "http://www.w3.org/Graphics/SVG/1.1/DTD/svg11.dtd">
<svg version="1.1" xmlns="http://www.w3.org/2000/svg" xmlns:xlink="http://www.w3.org/1999/xlink" preserveAspectRatio="xMidYMid meet" viewBox="-1.0010335432298083 -0.9967000000000326 644.0000000000001 472.5999999999999" width="640" height="468.6"><defs><path d="M228.27 15.93C251.76 15.93 274.28 25.25 290.89 41.85C307.5 58.45 316.83 80.96 316.83 104.43C316.83 116.07 316.83 174.27 316.83 279.03L129.38 279.03C129.38 174.27 129.38 116.07 129.38 104.43C129.38 80.96 138.71 58.45 155.32 41.85C171.92 25.25 194.45 15.93 217.94 15.93C220 15.93 227.24 15.93 228.27 15.93Z" id="f12pm49QG"></path><path d="M257.18 281.77L173.91 281.77L173.91 175.07L257.18 175.07L257.18 281.77ZM171.76 172.91L171.76 283.92L259.34 283.92L259.34 172.91L171.76 172.91Z" id="c1TPIMGGPy"></path><path d="M171.76 172.91L171.76 195.86L259.34 195.86L259.34 172.91L171.76 172.91Z" id="c1j6o1qRzX"></path><path d="M171.33 282.3L121.17 282.3L121.17 117.43L171.33 117.43L171.33 282.3ZM119.02 115.28L119.02 284.45L173.49 284.45L173.49 115.28L119.02 115.28Z" id="a1le8oUDT"></path><path d="M325.94 281.74L259.76 281.74L259.76 84.08L325.94 84.08L325.94 281.74ZM257.61 81.92L257.61 283.9L328.1 283.9L328.1 81.92L257.61 81.92Z" id="aFJ2LipGM"></path><path d="M287.09 108.88C289.43 108.88 291.67 109.8 293.33 111.46C294.99 113.11 295.92 115.36 295.92 117.7C295.92 119.06 295.92 125.91 295.92 138.22L277.23 138.22C277.23 125.91 277.23 119.06 277.23 117.7C277.23 115.36 278.16 113.11 279.81 111.46C281.47 109.8 283.72 108.88 286.06 108.88C286.26 108.88 286.98 108.88 287.09 108.88Z" id="bZKC9nic8"></path><path d="M275.1 124.88L298.06 124.88" id="a31xVuqSt"></path><path d="M287.09 161.53C289.43 161.53 291.67 162.46 293.33 164.11C294.99 165.77 295.92 168.01 295.92 170.35C295.92 171.72 295.92 178.57 295.92 190.89L277.23 190.89C277.23 178.57 277.23 171.72 277.23 170.36C277.23 168.02 278.16 165.77 279.81 164.12C281.47 162.46 283.72 161.53 286.06 161.53C286.06 161.53 286.06 161.53 286.06 161.53C286.68 161.53 287.02 161.53 287.09 161.53Z" id="k1qqy9MKUM"></path><path d="M275.1 177.54L298.06 177.54" id="bo4Qf32i0"></path><path d="M287.09 214.19C289.43 214.19 291.67 215.12 293.33 216.77C294.99 218.42 295.92 220.67 295.92 223.01C295.92 224.38 295.92 231.22 295.92 243.54L277.23 243.54C277.23 231.22 277.23 224.38 277.23 223.01C277.23 220.67 278.16 218.42 279.81 216.77C281.47 215.12 283.72 214.19 286.06 214.19C286.26 214.19 286.98 214.19 287.09 214.19Z" id="b36PkB5sX5"></path><path d="M275.1 230.19L298.06 230.19" id="aZdD2AEFI"></path><path d="M287.09 266.83C289.43 266.83 291.67 267.76 293.33 269.41C294.99 271.07 295.92 273.31 295.92 275.65C295.92 276.91 295.92 283.19 295.92 294.5L277.23 294.5C277.23 283.19 277.23 276.91 277.23 275.65C277.23 273.31 278.16 271.07 279.81 269.41C281.47 267.76 283.72 266.83 286.06 266.83C286.26 266.83 286.98 266.83 287.09 266.83Z" id="b46RQ9KQY5"></path><path d="M136.17 152.5C138.51 152.5 140.76 153.43 142.42 155.09C144.07 156.74 145 158.98 145 161.32C145 162.69 145 169.53 145 181.85L126.31 181.85C126.31 169.53 126.31 162.69 126.31 161.32C126.31 158.98 127.24 156.74 128.9 155.09C130.56 153.43 132.8 152.5 135.14 152.5C135.35 152.5 136.07 152.5 136.17 152.5Z" id="aUbVQFXGS"></path><path d="M124.18 168.51L147.14 168.51" id="a1kgKY4Rd5"></path><path d="M136.17 205.16C138.51 205.16 140.76 206.08 142.42 207.74C144.07 209.39 145 211.64 145 213.98C145 215.35 145 222.19 145 234.51L126.31 234.51C126.31 222.19 126.31 215.35 126.31 213.98C126.31 212.82 126.54 211.68 126.99 210.6C127.43 209.53 128.08 208.56 128.9 207.74C129.72 206.92 130.69 206.27 131.76 205.83C132.83 205.38 133.98 205.16 135.14 205.16C135.35 205.16 136.07 205.16 136.17 205.16Z" id="hCyPHdeaj"></path><path d="M124.18 221.17L147.14 221.17" id="a26snu0USa"></path><path d="M136.17 257.81C138.51 257.81 140.76 258.74 142.42 260.4C144.07 262.05 145 264.3 145 266.64C145 268 145 274.85 145 287.16L126.31 287.16C126.31 274.85 126.31 268 126.31 266.64C126.31 264.3 127.24 262.05 128.9 260.4C130.56 258.74 132.8 257.81 135.14 257.81C135.35 257.81 136.07 257.81 136.17 257.81Z" id="a2isKQ7Ol"></path><path d="M124.18 273.82L147.14 273.82" id="asQQTgUU"></path><path d="M257.61 81.92L257.61 90.73L328.1 90.73L328.1 81.92L257.61 81.92Z" id="a2mZGH9e4T"></path><path d="M119.02 111.01L119.02 119.81L173.49 119.81L173.49 111.01L119.02 111.01Z" id="b1PAMtYbP5"></path><path d="M187.51 216.68L187.51 240.69L206.2 240.69L206.2 216.68L187.51 216.68Z" id="bJNT8jGUW"></path><path d="M185.37 227.35L208.34 227.35" id="a7GMNE53pM"></path><path d="M196.86 241.76L196.86 227.35" id="d46cLRlpHg"></path><path d="M187.51 260.05L187.51 284.06L206.2 284.06L206.2 260.05L187.51 260.05Z" id="ckfsyrWMg"></path><path d="M185.37 270.72L208.34 270.72" id="h57os0eqe"></path><path d="M196.86 285.13L196.86 270.72" id="dujpS0Nb1"></path><path d="M222.75 216.68L222.75 240.69L241.45 240.69L241.45 216.68L222.75 216.68Z" id="a10D6jJPfM"></path><path d="M220.62 227.35L243.59 227.35" id="a2fKucN2Pq"></path><path d="M232.1 241.76L232.1 227.35" id="a3EsRux9kR"></path><path d="M222.75 260.05L222.75 284.06L241.45 284.06L241.45 260.05L222.75 260.05Z" id="bprUToLZr"></path><path d="M220.62 270.72L243.59 270.72" id="a4bsHSy0B"></path><path d="M232.1 285.13L232.1 270.72" id="h4DIDFIOEz"></path><path d="M198.05 67.25C198.05 59.58 191.84 53.37 184.17 53.37C176.5 53.37 170.29 59.58 170.29 67.25C170.29 74.91 176.5 81.12 184.17 81.12C191.84 81.12 198.05 74.91 198.05 67.25Z" id="caSdM9cIZ"></path><path d="M105.34 279.12L105.34 295.13L340.86 295.13L340.86 279.12L105.34 279.12Z" id="g12wXvzilP"></path><path d="M219.38 0C160.84 0 113.36 47.44 113.36 105.96C113.36 118.57 113.36 181.62 113.36 295.13L332.85 295.13C332.85 181.62 332.85 118.57 332.85 105.96C332.85 47.44 285.38 0 226.82 0C225.34 0 220.13 0 219.38 0ZM129.39 279.11L129.39 145.7L215.09 145.7L215.09 279.11L129.39 279.11ZM129.39 129.69C129.39 115.78 129.39 108.05 129.39 106.5C129.39 83.34 138.28 61.06 154.22 44.25C170.16 27.45 191.95 17.39 215.09 16.15C215.09 23.71 215.09 61.56 215.09 129.69L129.39 129.69ZM231.13 279.11L231.13 145.7L316.83 145.7L316.83 279.11L231.13 279.11ZM231.13 129.69C231.13 61.56 231.13 23.71 231.13 16.15C254.27 17.39 276.06 27.45 292 44.25C307.94 61.06 316.83 83.34 316.83 106.5C316.83 108.05 316.83 115.78 316.83 129.69L231.13 129.69Z" id="c5WeM8gE"></path><path d="M240.88 153.15C235.44 75.28 319.99 119.64 333.21 127.3C342.83 132.88 380.58 153.99 388.12 161.51C392.97 166.36 389.6 169.95 389.6 169.95C389.6 169.95 395.26 177.39 387.29 178.27C392.96 185.7 383.93 186.71 383.93 186.71C383.93 186.71 386.35 193.96 376.96 191.78C366.85 189.43 290.19 156.27 290.19 156.27C290.19 156.27 307.32 210.3 312.66 227.4C310.45 229.91 299.4 242.46 279.5 265.05C254.83 205.88 241.95 168.58 240.88 153.15Z" id="aAPG2PjTC"></path><path d="M362.14 185.59C363.96 185.23 365.19 184.18 364.84 181.93C363.68 174.51 351.29 167.51 351.29 167.51C351.29 167.51 356.25 155.56 346.5 146.33" id="icMXl93sQ"></path><path d="M383.8 186.32C379.36 183.72 363.06 174.2 359.19 172.21" id="cVQF86vK"></path><path d="M387.45 178.03C381.88 174.7 368.33 166.27 362.74 163.34" id="aaTZGrYle"></path><path d="M389.47 168.92C382.46 164.28 369.24 155.68 364.02 153.04" id="b1c9RJTA5J"></path><path d="M358.57 171.19C360.43 167.82 363.62 161.12 363.8 150.38" id="aLjP84aJi"></path><path d="M289.98 157.53L277.36 151.8" id="as5evvX7L"></path><path d="M97.66 419.76L187.46 419.76L187.46 409.39L97.66 409.39L97.66 419.76Z" id="cwuo64gR3"></path><path d="M180 329.85C188.18 329.85 192.72 329.85 193.63 329.85C195.09 329.85 196.48 329.27 197.52 328.24C198.55 327.21 199.13 325.81 199.13 324.35C199.13 322.89 198.55 321.5 197.52 320.47C196.48 319.44 195.09 318.86 193.63 318.86C183.43 318.86 101.82 318.86 91.61 318.86C90.16 318.86 88.76 319.44 87.73 320.47C86.7 321.5 86.12 322.89 86.12 324.35C86.12 325.81 86.7 327.21 87.73 328.24C88.76 329.27 90.16 329.85 91.61 329.85C92.51 329.85 97 329.85 105.09 329.85C91.74 409.87 84.33 454.33 82.85 463.22C82.73 463.88 82.77 464.56 82.94 465.2C83.12 465.85 83.43 466.45 83.87 466.97C84.3 467.48 84.84 467.89 85.45 468.18C86.06 468.46 86.72 468.6 87.39 468.6C88.45 468.6 89.47 468.24 90.29 467.58C91.11 466.92 91.68 466 91.91 464.97C93.87 455.96 103.7 410.92 121.39 329.85L163.72 329.85C181.4 410.92 191.22 455.96 193.18 464.97C193.4 466 193.97 466.92 194.79 467.58C195.61 468.24 196.63 468.6 197.69 468.6C198.36 468.6 199.02 468.46 199.63 468.17C200.24 467.89 200.78 467.48 201.21 466.97C201.65 466.46 201.97 465.86 202.14 465.21C202.32 464.57 202.36 463.89 202.25 463.23C199.28 445.44 191.87 400.98 180 329.85Z" id="amCD9N9St"></path><path d="M197.52 328.24C198.55 327.21 199.13 325.81 199.13 324.35C199.13 322.89 198.55 321.5 197.52 320.47C196.48 319.44 195.09 318.86 193.63 318.86C183.43 318.86 101.82 318.86 91.61 318.86C90.16 318.86 88.76 319.44 87.73 320.47C86.7 321.5 86.12 322.89 86.12 324.35C86.12 325.81 86.7 327.21 87.73 328.24C88.76 329.27 90.16 329.85 91.61 329.85C92.51 329.85 97 329.85 105.09 329.85L105.06 330.01L121.33 330.01L121.37 329.85L163.7 329.85L163.74 330.01L180.03 330.01L180 329.85L193.63 329.85C195.53 329.46 196.83 328.92 197.52 328.24Z" id="c5UaW7XScO"></path><path d="M24.4 458.98C10.07 414.89 2.1 390.4 0.51 385.5C-1.26 380.05 1.72 375.64 7.17 375.64C17.87 375.64 103.44 375.64 114.13 375.64C119.59 375.64 125.45 380.05 127.21 385.5C128.81 390.4 136.77 414.89 151.11 458.98L24.4 458.98Z" id="c1f7iYMqln"></path><path d="M106.32 458.98C106.68 460.08 106.77 461.26 106.59 462.4C106.41 463.55 105.96 464.64 105.27 465.57C104.59 466.51 103.69 467.28 102.66 467.8C101.62 468.33 100.48 468.6 99.32 468.6C111.78 468.6 211.44 468.6 223.9 468.6C225.06 468.6 226.21 468.33 227.25 467.8C228.28 467.28 229.18 466.51 229.86 465.58C230.55 464.64 231 463.55 231.18 462.4C231.36 461.26 231.27 460.08 230.91 458.98C205.99 458.98 118.78 458.98 106.32 458.98Z" id="f17hw4ji7v"></path><path d="M24.53 458.98C25.1 460.74 25.42 461.72 25.48 461.92C26.11 463.86 27.34 465.55 28.99 466.75C30.64 467.95 32.63 468.6 34.68 468.6C41.14 468.6 92.89 468.6 99.35 468.6C100.51 468.59 101.65 468.32 102.68 467.79C103.71 467.26 104.6 466.49 105.28 465.56C105.96 464.62 106.41 463.54 106.59 462.39C106.77 461.25 106.68 460.08 106.32 458.98C95.42 458.98 68.15 458.98 24.53 458.98Z" id="d27bi5YRJQ"></path><path d="M34.13 458.98L11.52 389.53L119.86 389.53L142.47 458.98L34.13 458.98Z" id="ahm7XBgmd"></path><path d="M68.57 445.19C64.86 445.19 60.88 442.19 59.67 438.49C58.87 436.01 52.43 416.19 51.63 413.71C50.43 410.01 52.45 407 56.16 407C59.5 407 86.2 407 89.53 407C93.24 407 97.22 410.01 98.42 413.71C99.23 416.19 105.66 436.01 106.47 438.49C107.67 442.19 105.64 445.19 101.94 445.19C95.27 445.19 71.91 445.19 68.57 445.19Z" id="c1Bcn2y9r6"></path><path d="M25.02 457.91L150.06 457.91" id="e3K6Ty8a9"></path><path d="M98.22 412.53C90.33 420.95 85.94 425.63 85.06 426.57C82.51 429.27 77.65 429.27 73.34 426.57C71.89 425.66 64.64 421.09 51.61 412.88" id="cAA0UBubM"></path><path d="M85.58 426.16L106.33 439.23" id="acEWReJfo"></path><path d="M60.01 439.55L72.42 426.31" id="a1qTBwHioK"></path><path d="M89.51 409.11C88.87 407.14 89.04 405.33 89.98 404.05C90.85 402.86 92.31 402.21 94.1 402.21C98.25 402.21 102.72 405.6 104.09 409.77C104.73 411.73 104.56 413.54 103.61 414.82C102.75 415.99 101.29 416.64 99.5 416.64C95.35 416.64 90.88 413.25 89.51 409.11Z" id="aqXSNJGYZ"></path><path d="M103.06 410.07C103.6 411.69 103.48 413.15 102.75 414.17C102.36 414.64 101.86 415.01 101.3 415.26C100.73 415.5 100.12 415.61 99.51 415.57C95.85 415.57 91.75 412.44 90.55 408.75C90.01 407.13 90.13 405.67 90.87 404.66C91.52 403.75 92.67 403.26 94.1 403.26C97.75 403.26 101.86 406.38 103.06 410.07ZM88.48 409.41C89.98 414 94.91 417.72 99.5 417.72C104.09 417.72 106.61 414 105.12 409.41C103.62 404.82 98.69 401.1 94.1 401.1C89.51 401.1 86.99 404.82 88.48 409.41Z" id="b23MmCxSGQ"></path><path d="M537.5 216.44C536.55 218.17 530.22 228.78 519.11 228.78C508.01 228.78 501.68 218.17 500.72 216.44C500.71 216.44 500.67 216.44 500.59 216.44L483.3 294.43L554.93 294.43L537.64 216.44C537.56 216.44 537.51 216.44 537.5 216.44Z" id="d1G37Bimmg"></path><path d="M491.49 257.93C506.16 259.46 528.95 272.56 536.86 294.21" id="b6PWVEbrl1"></path><path d="M501 294.84C502.64 277.2 516.63 248.04 541.8 238.93" id="d8tMBFcTfA"></path><path d="M518.85 223.03C512.67 229.54 504.87 235.61 496.06 239.68" id="h45vNZGcvB"></path><path d="M537.5 216.44C533.83 216.44 504.4 216.44 500.72 216.44C501.68 218.17 508 228.78 519.11 228.78C530.22 228.78 536.55 218.17 537.5 216.44Z" id="a4gtV63PIT"></path><path d="M416.03 468.08C415.36 467.74 414.79 467.25 414.35 466.64C413.91 466.03 413.62 465.33 413.5 464.59C413.39 463.85 413.45 463.09 413.68 462.38C415.17 457.86 427.06 421.7 428.55 417.18C428.86 416.24 429.47 415.42 430.28 414.84C431.08 414.26 432.05 413.95 433.05 413.95C434.09 413.95 442.41 413.95 443.45 413.95C444.28 413.95 445.09 414.17 445.81 414.58C446.53 414.99 447.12 415.58 447.54 416.29C447.96 417 448.18 417.81 448.19 418.64C448.2 419.46 448 420.28 447.59 421C445.07 425.52 424.85 461.68 422.32 466.2C421.91 466.93 421.31 467.53 420.58 467.96C419.85 468.38 419.02 468.6 418.18 468.6C417.43 468.6 416.7 468.42 416.03 468.08Z" id="a1mez0OF7c"></path><path d="M619.21 468.08C619.88 467.74 620.45 467.25 620.89 466.64C621.33 466.03 621.62 465.33 621.74 464.59C621.85 463.85 621.79 463.09 621.55 462.38C620.07 457.86 608.17 421.7 606.69 417.18C606.37 416.24 605.77 415.42 604.96 414.84C604.15 414.26 603.18 413.95 602.19 413.95C601.15 413.95 592.82 413.95 591.78 413.95C590.95 413.95 590.14 414.17 589.43 414.58C588.71 414.99 588.11 415.58 587.69 416.29C587.28 417.01 587.05 417.81 587.04 418.64C587.04 419.46 587.24 420.28 587.65 421C590.17 425.52 610.39 461.68 612.91 466.2C613.33 466.93 613.93 467.53 614.66 467.96C615.39 468.38 616.21 468.6 617.05 468.6C617.8 468.6 618.54 468.42 619.21 468.08Z" id="baWSy1eFc"></path><path d="M396.08 293.55L396.08 433.09L640 433.09L640 293.55L396.08 293.55Z" id="b4iyFfjAq"></path><path d="M621.64 415.09L414.43 415.09L414.43 311.53L621.64 311.53L621.64 415.09ZM412.28 309.38L412.28 417.25L623.8 417.25L623.8 309.38L412.28 309.38Z" id="a2h2Jw5uPn"></path><path d="M517.81 309.19L517.81 417.45" id="c3lXDbdAwj"></path><path d="M548.6 363.32C548.6 359.85 545.79 357.04 542.32 357.04C538.86 357.04 536.04 359.85 536.04 363.32C536.04 366.79 538.86 369.59 542.32 369.59C545.79 369.59 548.6 366.79 548.6 363.32Z" id="d2msdYT8"></path><path d="M500.03 363.32C500.03 359.85 497.22 357.04 493.75 357.04C490.28 357.04 487.47 359.85 487.47 363.32C487.47 366.79 490.28 369.59 493.75 369.59C497.22 369.59 500.03 366.79 500.03 363.32Z" id="baYSzhopZ"></path><path d="M169.58 256.47C172.54 259.43 174.2 263.44 174.2 267.62C174.2 271.05 174.2 288.18 174.2 319.01L142.65 319.01C142.65 288.18 142.65 271.05 142.65 267.62C142.65 263.44 144.31 259.43 147.27 256.47C150.23 253.52 154.24 251.86 158.43 251.86C162.61 251.86 166.62 253.52 169.58 256.47Z" id="bGYTx9Hg1"></path><path d="M142.65 271.99L142.65 301.37L174.21 301.37L174.21 271.99L142.65 271.99Z" id="a1AujsUsdc"></path><path d="M151.41 243.68L151.41 253.61L165.44 253.61L165.44 243.68L151.41 243.68Z" id="a1fH6PNQId"></path><path d="M370.92 140.84C370.92 130.07 362.18 121.34 351.4 121.34C340.63 121.34 331.89 130.07 331.89 140.84C331.89 151.61 340.63 160.34 351.4 160.34C362.18 160.34 370.92 151.61 370.92 140.84Z" id="cTFumndjI"></path><path d="M317.98 127.62C311.76 132.21 328.37 149.31 336.25 152.9C337.81 153.6 324.6 122.73 317.98 127.62Z" id="aze4cRFtd"></path><path d="M362.89 137.87C358.89 131.79 333.28 151.23 334.58 152.84C335.87 154.45 367.05 144.22 362.89 137.87Z" id="fa7rxF4l4"></path><path d="M385.36 117.87C385.36 110.94 379.73 105.32 372.79 105.32C365.85 105.32 360.23 110.94 360.23 117.87C360.23 124.8 365.85 130.42 372.79 130.42C379.73 130.42 385.36 124.8 385.36 117.87Z" id="lkfw9hHd1"></path><path d="M351.14 340.38L354.53 324.35L277.22 324.35L286.98 340.38L351.14 340.38Z" id="aSTlvGjV"></path><path d="M324.12 268.79C325.75 265.29 338.81 237.25 340.44 233.74C336.08 233.05 332.94 232.61 332.94 232.61C333.59 231.05 335.79 225.87 338.44 219.5C333.63 216.3 325.78 210.02 323.97 202.1C329.73 201.23 341.21 195.79 336.68 186.28C331.13 174.61 316.44 183.58 316.44 183.58C311.98 178.53 309.13 172.26 308.25 165.57C306.47 165.76 301.36 165.21 297.73 163.25C297.71 163.24 297.51 163.13 297.49 163.11C295.55 166.92 293.81 170.83 292.27 174.82C291.87 175.84 291.48 176.83 291.07 177.77C291.07 177.77 286 176.91 284.96 179.01C283.67 181.59 287.53 184.93 287.53 184.93C284.45 190.73 281.71 195.47 282.71 201.48C283.58 206.79 288.59 213.23 300.39 214.31C299.99 215.56 298.01 221.79 294.46 233.01C281.2 256.01 273.83 268.79 272.36 271.35C276.69 273.89 282.51 278.72 286.43 287.49C293.96 283.75 299.53 270.39 324.12 268.79Z" id="b1w6u9c9xQ"></path><path d="M402.46 161.68C397.12 157.4 393.91 161.14 393.91 161.14C393.91 161.14 385.89 156.33 385.89 164.35C377.87 159.54 377.87 168.62 377.87 168.62C377.87 168.62 370.38 167 373.6 176.1C377.05 185.88 415.83 256.48 415.83 256.48C415.83 256.48 375.73 241.52 360.23 237.54C357.38 236.8 353.9 236.08 350.38 235.42C348.11 240.73 344.56 249.43 338.84 263.97C331.08 283.66 334.85 303.34 357.31 311.15C357.71 309.26 360.9 294.18 361.29 292.29C361.29 292.29 402.8 307.88 425.97 307.25C504.57 305.12 452.18 224.45 442.56 212.43C435.6 203.75 410.76 168.33 402.46 161.68Z" id="a1hgTf4GXy"></path><path d="M316.46 183.63C316.46 183.63 331.15 174.63 336.7 186.32C341.23 195.84 329.75 201.28 323.99 202.15C325.8 210.07 333.66 216.35 338.46 219.55C342.41 210.07 347.36 197.93 349.68 191C353.13 180.74 354.91 164.83 339.45 153.33C324.97 142.6 308.39 149.72 304.65 153.45C302.43 155.67 300.34 157.76 297.51 163.15C297.54 163.16 297.73 163.28 297.76 163.29C301.36 165.19 306.47 165.73 308.25 165.57C309.12 172.28 311.98 178.57 316.46 183.63Z" id="d5OgDJRMfD"></path><path d="M350.38 235.44C346.9 234.79 343.41 234.2 340.46 233.73C338.83 237.24 325.79 265.28 324.15 268.79C299.57 270.41 286.46 287.49 286.46 287.49C282.53 278.72 276.71 273.89 272.4 271.33C271.91 272.19 267.97 279.02 267.47 279.88C264.96 284.38 263.68 289.47 263.78 294.62C263.87 299.78 265.33 304.82 268.01 309.22C268.63 310.23 271.7 315.27 277.22 324.34L354.53 324.34C356.2 316.43 357.13 312.03 357.31 311.15C334.85 303.35 331.08 283.67 338.84 263.99C344.56 249.48 348.11 240.76 350.38 235.44Z" id="c3wKhTv5T9"></path><path d="M300.72 215.41C304.07 215.4 307.41 214.9 310.62 213.95" id="a46LYvrIzU"></path><path d="M379.42 187.04C379.81 185.67 380.78 184.78 382.68 184.91C390.17 185.45 398.18 197.21 398.18 197.21C398.18 197.21 409.69 191.28 419.71 200.2" id="i2CwXHoxY"></path><path d="M378.96 168.33C383.14 174.91 390.91 187.18 392.84 190.26" id="a1Z3xOBvaI"></path><path d="M386.68 163.75C390.99 170.1 398.53 180.92 401.4 185.45" id="h2hcXHcDq"></path><path d="M395.12 161.26C400.51 168.14 408.76 178.8 411.55 183.35" id="h6AbTCYHZ"></path><path d="M393.91 190.26C397.14 188.1 403.53 184.38 414.22 183.32" id="e2LSqxM3Zn"></path><path d="M332.81 231.47L323.34 230.33" id="e9sSi6sz1"></path><path d="M299.28 335.04L298.75 333.97" id="b2vNp1c53"></path><path d="M360.77 293.33L355.42 291.23" id="c5bMN3Os2"></path><path d="M428.12 260.24L415.97 255.47" id="acjDzxoFZ"></path><path d="M354.53 324.35L277.22 324.35" id="d3K4Fa6dIx"></path><path d="M323.34 268.79C318.65 279.25 316.05 285.06 315.53 286.22C314.36 288.83 312.45 291.04 310.05 292.6C307.65 294.15 304.85 294.98 301.99 294.98C299.43 294.98 286.68 294.98 263.72 294.98" id="ciAkScrj6"></path><path d="M290.45 191.43C291.37 192.22 295.11 193.29 297.11 190.6" id="b11ZjULNTd"></path><path d="M328.43 189.75L321.66 192.37" id="aA1PuSN3S"></path><path d="M303.18 179.17C302.66 179.3 302.13 179.32 301.6 179.23C301.08 179.15 300.58 178.95 300.13 178.66C299.68 178.38 299.3 178 299.01 177.56C298.71 177.12 298.51 176.62 298.41 176.1" id="fzOLU0a2J"></path><path d="M318.92 209.28C318.79 209.8 318.79 210.34 318.93 210.85C319.07 211.37 319.34 211.84 319.72 212.22C320.09 212.6 320.56 212.87 321.07 213.02C321.58 213.16 322.13 213.18 322.65 213.05C323.56 212.84 330.87 211.11 331.78 210.9C332.3 210.77 332.77 210.51 333.16 210.15C333.55 209.79 333.84 209.34 334 208.83C334.16 208.33 334.19 207.79 334.09 207.27C333.98 206.75 333.74 206.27 333.4 205.87C332.73 205.08 327.38 198.83 326.71 198.05C326.34 197.62 325.86 197.3 325.32 197.13C324.79 196.95 324.21 196.93 323.66 197.06C323.11 197.18 322.6 197.46 322.2 197.85C321.79 198.25 321.5 198.74 321.36 199.29C320.87 201.29 319.16 208.28 318.92 209.28Z" id="fr4uc0xU"></path><path d="M341.94 431.44C336.59 425.02 317.99 401.81 317.99 401.81" id="a4iDkhKtBm"></path><path d="M476.38 354.55C473.21 355.48 457.32 360.11 428.72 368.45C425.44 369.49 423.62 370.06 423.25 370.17C425.71 386.06 427.6 393.8 427.6 393.8C427.6 393.8 376.27 346.79 351.15 340.38C346.87 340.38 325.47 340.38 286.96 340.38L265.04 468.6C379.88 468.6 443.68 468.6 456.44 468.6C510.99 468.6 495.49 403.96 486.39 379.4C484.43 374.1 480.83 365.21 476.38 354.55Z" id="b3xFku9zU"></path><path d="M431.34 253.42C429.92 252.67 428.29 252.43 426.72 252.75C417.21 254.87 416.48 272.85 414.22 283.21C410.48 300.31 402.46 306.72 401.93 317.94C401.39 328.71 418.5 332.9 418.5 332.9C419.09 338.54 419.68 343.78 420.28 348.61C425.04 347.19 463.15 335.8 467.91 334.38C454.85 303.6 439.37 268.05 434.49 256.86C433.87 255.38 432.75 254.17 431.34 253.42Z" id="c4hedxJwk"></path><path d="M423.22 370.18L428.69 368.45L423.22 370.05L423.22 370.18Z" id="b1ylTzmR2t"></path><path d="M475.98 353.54C472.83 354.53 457.07 359.5 428.72 368.45L476.4 354.53C476.21 354.09 476.07 353.76 475.98 353.54Z" id="aCE9fSdSf"></path><path d="M467.9 334.39C463.13 335.81 425.02 347.19 420.26 348.61C421.28 356.93 422.29 364.07 423.21 370.06C423.57 369.95 425.4 369.41 428.7 368.44L475.98 353.54C472.5 345.25 469.8 338.86 467.9 334.39Z" id="a1dhMJDWMT"></path><path d="M331.56 340.21C348.65 358.12 436.99 448.9 464.48 439.75C484.54 433.06 455 367.21 452.18 358.54" id="aADaQmET3"></path><path d="M450.81 413.11C444.62 407.57 433.57 397.67 427.69 392.45" id="b7c1lQG0hL"></path><path d="M416.36 320.61L417.41 331.78" id="dhUMs8R1C"></path><path d="M429.8 253.7L431.82 259.37" id="aq19X2Dtw"></path><path d="M424.94 254.24L428.22 262.29" id="aUMTbiEPP"></path><path d="M300.42 411.53L311.57 340.27C296.81 340.27 288.6 340.27 286.96 340.27C286.96 340.27 188.62 377.78 166.16 413.57C144.94 447.4 183.8 468.6 195.03 468.6C201.56 468.6 234.2 468.6 292.95 468.6L300.72 411.63L300.42 411.53Z" id="ajQaOXkNS"></path><path d="M403.53 449.37C394.43 444.56 383.74 439.74 372.52 424.79C361.29 409.83 347.92 413.57 339.37 424.25C339.37 424.25 332.85 421.91 323.26 418.73C322.76 422.05 320.26 438.68 315.76 468.59L404.06 468.6C409.77 458.98 409.59 452.57 403.53 449.37Z" id="evt7DfU24"></path><path d="M300.72 411.63L292.95 468.6L315.77 468.6C320.27 438.67 322.77 422.04 323.27 418.71C317.04 416.67 309.52 414.25 301.66 411.91C301.54 411.87 301.22 411.78 300.72 411.63Z" id="a2DQmeYbG"></path><path d="M398.18 462.72L406.08 467.52" id="a5qFIOfMO"></path><path d="M247.96 399.15C270.41 403.42 280.12 406.15 300.44 412.61" id="aebDMS3M1"></path><path d="M391.77 465.39L396.38 468.06" id="b3nXcFNQuR"></path><path d="M340.45 423.59L347.93 426.39" id="b1fIJRqMAn"></path><path d="M520.81 222.27C521.96 215.52 527.15 188.78 539.87 174.3" id="fTnk4hh3E"></path><path d="M565.83 184.43C564.75 181.93 554.88 183.8 543.78 188.6C532.68 193.39 524.55 199.3 525.63 201.8C526.71 204.29 536.59 202.43 547.69 197.63C558.79 192.84 566.92 186.93 565.83 184.43Z" id="ep6TeCIhZ"></path><path d="M552.68 115.6C550.81 114.2 546.05 117.41 542.03 122.76C538.02 128.11 536.28 133.58 538.15 134.98C540.01 136.38 544.78 133.17 548.8 127.82C552.81 122.47 554.55 117 552.68 115.6Z" id="aQ4P4glOV"></path><path d="M558.21 161.6C562.9 155.26 564.84 149.08 562.52 147.12C560.2 145.16 554.44 148.12 548.96 153.8C548.96 147.3 547.28 142.45 544.65 142.11C541.28 141.67 537.6 148.75 536.41 157.92C536.06 160.54 535.96 163.18 536.12 165.82C537.67 165.34 539.32 165.24 540.92 165.56C542.51 165.87 544 166.58 545.26 167.61C546.51 168.64 547.49 169.97 548.09 171.48C548.7 172.99 548.93 174.62 548.74 176.24C551.29 175.94 553.8 175.42 556.25 174.66C565.08 171.96 571.45 167.14 570.47 163.89C569.69 161.35 564.62 160.53 558.21 161.6Z" id="bU3vfluAd"></path><path d="M540.96 165.56C539.34 165.24 537.68 165.33 536.11 165.82C536.4 170.19 537.48 173.54 539.13 174.79C540.67 176.24 544.26 176.74 548.73 176.24C548.91 174.64 548.7 173.02 548.1 171.53C547.51 170.03 546.56 168.71 545.32 167.67C544.07 166.61 542.57 165.89 540.96 165.56Z" id="c63tjMlAtZ"></path><path d="M517.29 221.41C516.92 213.75 514.69 176.17 506.35 153.97" id="bwuWoH8Y1"></path><path d="M514.86 190.33C514.37 187.8 502.36 187.96 488.02 190.69C473.69 193.42 462.46 197.69 462.94 200.22C463.42 202.75 475.44 202.58 489.77 199.85C504.11 197.12 515.34 192.86 514.86 190.33Z" id="a21waizmg"></path><path d="M504.45 131.57C501.22 124.37 496.78 119.65 493.94 120.7C491.11 121.76 490.84 128.24 493.12 135.78C487.44 132.62 482.39 131.67 480.8 133.81C478.77 136.5 483.14 143.2 490.56 148.74C492.67 150.33 494.93 151.71 497.3 152.87C497.64 151.28 498.37 149.8 499.42 148.56C500.48 147.32 501.82 146.37 503.34 145.79C504.86 145.2 506.5 145 508.11 145.21C509.72 145.42 511.26 146.03 512.58 146.98C513.56 144.62 514.34 142.17 514.88 139.67C516.86 130.64 515.78 122.74 512.46 122.01C509.87 121.44 506.67 125.46 504.45 131.57Z" id="ceEfB8989"></path><path d="M499.46 148.52C498.38 149.77 497.64 151.27 497.3 152.87C501.25 154.76 504.7 155.46 506.61 154.64C508.62 154.01 510.82 151.12 512.58 146.99C511.27 146.04 509.76 145.44 508.16 145.22C506.57 145.01 504.95 145.19 503.44 145.75C501.9 146.33 500.53 147.28 499.46 148.52Z" id="biH3tstuu"></path><path d="M478.57 162.07C480.7 163.28 482.3 165.23 483.05 167.56C483.81 169.88 483.66 172.41 482.65 174.63C481.63 176.85 479.81 178.61 477.56 179.56C475.31 180.51 472.78 180.58 470.48 179.76C470.48 179.77 470.48 179.8 470.48 179.8C482.54 185.31 494.13 185.8 496.35 180.88C498.56 175.96 490.63 167.54 478.57 162.04C478.57 162.05 478.57 162.07 478.57 162.07Z" id="cHrOoHmyY"></path><path d="M477.34 175.76C476.98 174.63 477.05 173.4 477.55 172.31C478.04 171.23 478.93 170.38 480.03 169.92C481.14 169.46 482.37 169.43 483.49 169.84C483.37 168.24 482.85 166.7 481.99 165.34C481.13 163.99 479.95 162.86 478.55 162.07C477.74 163.84 471.27 178 470.47 179.77C471.97 180.3 473.59 180.46 475.17 180.23C476.75 180 478.25 179.38 479.54 178.43C478.5 177.85 477.71 176.89 477.34 175.76Z" id="dFjA2Am0b"></path><path d="M477.35 175.77C477.72 176.9 478.5 177.85 479.54 178.43C480.87 177.45 481.93 176.15 482.62 174.65C483.32 173.15 483.61 171.49 483.49 169.84C482.37 169.43 481.13 169.46 480.03 169.92C478.93 170.38 478.04 171.24 477.54 172.33C477.05 173.41 476.98 174.64 477.35 175.77Z" id="agBC6Wqoy"></path></defs><g><g><use xlink:href="#f12pm49QG" opacity="1" fill="#ffb7d5" fill-opacity="1"></use><g><use xlink:href="#f12pm49QG" opacity="1" fill-opacity="0" stroke="#000000" stroke-width="1" stroke-opacity="0"></use></g></g><g><use xlink:href="#c1TPIMGGPy" opacity="1" fill="#ca7358" fill-opacity="1"></use><g><use xlink:href="#c1TPIMGGPy" opacity="1" fill-opacity="0" stroke="#000000" stroke-width="1" stroke-opacity="0"></use></g></g><g><use xlink:href="#c1j6o1qRzX" opacity="1" fill="#ca7358" fill-opacity="1"></use><g><use xlink:href="#c1j6o1qRzX" opacity="1" fill-opacity="0" stroke="#000000" stroke-width="1" stroke-opacity="0"></use></g></g><g><use xlink:href="#a1le8oUDT" opacity="1" fill="#ca7358" fill-opacity="1"></use><g><use xlink:href="#a1le8oUDT" opacity="1" fill-opacity="0" stroke="#000000" stroke-width="1" stroke-opacity="0"></use></g></g><g><use xlink:href="#aFJ2LipGM" opacity="1" fill="#ca7358" fill-opacity="1"></use><g><use xlink:href="#aFJ2LipGM" opacity="1" fill-opacity="0" stroke="#000000" stroke-width="1" stroke-opacity="0"></use></g></g><g><use xlink:href="#bZKC9nic8" opacity="1" fill="#ca7358" fill-opacity="1"></use><g><use xlink:href="#bZKC9nic8" opacity="1" fill-opacity="0" stroke="#000000" stroke-width="1" stroke-opacity="0"></use></g></g><g><use xlink:href="#a31xVuqSt" opacity="1" fill="#000000" fill-opacity="0"></use><g><use xlink:href="#a31xVuqSt" opacity="1" fill-opacity="0" stroke="#ffb7d5" stroke-width="4" stroke-opacity="1"></use></g></g><g><use xlink:href="#k1qqy9MKUM" opacity="1" fill="#f5ebdd" fill-opacity="1"></use><g><use xlink:href="#k1qqy9MKUM" opacity="1" fill-opacity="0" stroke="#000000" stroke-width="1" stroke-opacity="0"></use></g></g><g><use xlink:href="#bo4Qf32i0" opacity="1" fill="#000000" fill-opacity="0"></use><g><use xlink:href="#bo4Qf32i0" opacity="1" fill-opacity="0" stroke="#ffb7d5" stroke-width="4" stroke-opacity="1"></use></g></g><g><use xlink:href="#b36PkB5sX5" opacity="1" fill="#f5ebdd" fill-opacity="1"></use><g><use xlink:href="#b36PkB5sX5" opacity="1" fill-opacity="0" stroke="#000000" stroke-width="1" stroke-opacity="0"></use></g></g><g><use xlink:href="#aZdD2AEFI" opacity="1" fill="#000000" fill-opacity="0"></use><g><use xlink:href="#aZdD2AEFI" opacity="1" fill-opacity="0" stroke="#ffb7d5" stroke-width="4" stroke-opacity="1"></use></g></g><g><use xlink:href="#b46RQ9KQY5" opacity="1" fill="#30242a" fill-opacity="1"></use><g><use xlink:href="#b46RQ9KQY5" opacity="1" fill-opacity="0" stroke="#000000" stroke-width="1" stroke-opacity="0"></use></g></g><g><use xlink:href="#aUbVQFXGS" opacity="1" fill="#f5ebdd" fill-opacity="1"></use><g><use xlink:href="#aUbVQFXGS" opacity="1" fill-opacity="0" stroke="#000000" stroke-width="1" stroke-opacity="0"></use></g></g><g><use xlink:href="#a1kgKY4Rd5" opacity="1" fill="#000000" fill-opacity="0"></use><g><use xlink:href="#a1kgKY4Rd5" opacity="1" fill-opacity="0" stroke="#ffb7d5" stroke-width="4" stroke-opacity="1"></use></g></g><g><use xlink:href="#hCyPHdeaj" opacity="1" fill="#f5ebdd" fill-opacity="1"></use><g><use xlink:href="#hCyPHdeaj" opacity="1" fill-opacity="0" stroke="#000000" stroke-width="1" stroke-opacity="0"></use></g></g><g><use xlink:href="#a26snu0USa" opacity="1" fill="#000000" fill-opacity="0"></use><g><use xlink:href="#a26snu0USa" opacity="1" fill-opacity="0" stroke="#ffb7d5" stroke-width="4" stroke-opacity="1"></use></g></g><g><use xlink:href="#a2isKQ7Ol" opacity="1" fill="#ca7358" fill-opacity="1"></use><g><use xlink:href="#a2isKQ7Ol" opacity="1" fill-opacity="0" stroke="#000000" stroke-width="1" stroke-opacity="0"></use></g></g><g><use xlink:href="#asQQTgUU" opacity="1" fill="#000000" fill-opacity="0"></use><g><use xlink:href="#asQQTgUU" opacity="1" fill-opacity="0" stroke="#ffb7d5" stroke-width="4" stroke-opacity="1"></use></g></g><g><use xlink:href="#a2mZGH9e4T" opacity="1" fill="#ca7358" fill-opacity="1"></use><g><use xlink:href="#a2mZGH9e4T" opacity="1" fill-opacity="0" stroke="#000000" stroke-width="1" stroke-opacity="0"></use></g></g><g><use xlink:href="#b1PAMtYbP5" opacity="1" fill="#ca7358" fill-opacity="1"></use><g><use xlink:href="#b1PAMtYbP5" opacity="1" fill-opacity="0" stroke="#000000" stroke-width="1" stroke-opacity="0"></use></g></g><g><use xlink:href="#bJNT8jGUW" opacity="1" fill="#f5ebdd" fill-opacity="1"></use><g><use xlink:href="#bJNT8jGUW" opacity="1" fill-opacity="0" stroke="#000000" stroke-width="1" stroke-opacity="0"></use></g></g><g><use xlink:href="#a7GMNE53pM" opacity="1" fill="#000000" fill-opacity="0"></use><g><use xlink:href="#a7GMNE53pM" opacity="1" fill-opacity="0" stroke="#ffb7d5" stroke-width="4" stroke-opacity="1"></use></g></g><g><use xlink:href="#d46cLRlpHg" opacity="1" fill="#000000" fill-opacity="0"></use><g><use xlink:href="#d46cLRlpHg" opacity="1" fill-opacity="0" stroke="#ffb7d5" stroke-width="4" stroke-opacity="1"></use></g></g><g><use xlink:href="#ckfsyrWMg" opacity="1" fill="#ca7358" fill-opacity="1"></use><g><use xlink:href="#ckfsyrWMg" opacity="1" fill-opacity="0" stroke="#000000" stroke-width="1" stroke-opacity="0"></use></g></g><g><use xlink:href="#h57os0eqe" opacity="1" fill="#000000" fill-opacity="0"></use><g><use xlink:href="#h57os0eqe" opacity="1" fill-opacity="0" stroke="#ffb7d5" stroke-width="4" stroke-opacity="1"></use></g></g><g><use xlink:href="#dujpS0Nb1" opacity="1" fill="#000000" fill-opacity="0"></use><g><use xlink:href="#dujpS0Nb1" opacity="1" fill-opacity="0" stroke="#ffb7d5" stroke-width="4" stroke-opacity="1"></use></g></g><g><use xlink:href="#a10D6jJPfM" opacity="1" fill="#30242a" fill-opacity="1"></use><g><use xlink:href="#a10D6jJPfM" opacity="1" fill-opacity="0" stroke="#000000" stroke-width="1" stroke-opacity="0"></use></g></g><g><use xlink:href="#a2fKucN2Pq" opacity="1" fill="#000000" fill-opacity="0"></use><g><use xlink:href="#a2fKucN2Pq" opacity="1" fill-opacity="0" stroke="#ffb7d5" stroke-width="4" stroke-opacity="1"></use></g></g><g><use xlink:href="#a3EsRux9kR" opacity="1" fill="#000000" fill-opacity="0"></use><g><use xlink:href="#a3EsRux9kR" opacity="1" fill-opacity="0" stroke="#ffb7d5" stroke-width="4" stroke-opacity="1"></use></g></g><g><use xlink:href="#bprUToLZr" opacity="1" fill="#f5ebdd" fill-opacity="1"></use><g><use xlink:href="#bprUToLZr" opacity="1" fill-opacity="0" stroke="#000000" stroke-width="1" stroke-opacity="0"></use></g></g><g><use xlink:href="#a4bsHSy0B" opacity="1" fill="#000000" fill-opacity="0"></use><g><use xlink:href="#a4bsHSy0B" opacity="1" fill-opacity="0" stroke="#ffb7d5" stroke-width="4" stroke-opacity="1"></use></g></g><g><use xlink:href="#h4DIDFIOEz" opacity="1" fill="#000000" fill-opacity="0"></use><g><use xlink:href="#h4DIDFIOEz" opacity="1" fill-opacity="0" stroke="#ffb7d5" stroke-width="4" stroke-opacity="1"></use></g></g><g><use xlink:href="#caSdM9cIZ" opacity="1" fill="#f5ebdd" fill-opacity="1"></use><g><use xlink:href="#caSdM9cIZ" opacity="1" fill-opacity="0" stroke="#000000" stroke-width="1" stroke-opacity="0"></use></g></g><g><use xlink:href="#g12wXvzilP" opacity="1" fill="#f5ebdd" fill-opacity="1"></use><g><use xlink:href="#g12wXvzilP" opacity="1" fill-opacity="0" stroke="#000000" stroke-width="1" stroke-opacity="0"></use></g></g><g><use xlink:href="#c5WeM8gE" opacity="1" fill="#f5ebdd" fill-opacity="1"></use><g><use xlink:href="#c5WeM8gE" opacity="1" fill-opacity="0" stroke="#000000" stroke-width="1" stroke-opacity="0"></use></g></g><g><use xlink:href="#aAPG2PjTC" opacity="1" fill="#a15842" fill-opacity="1"></use><g><use xlink:href="#aAPG2PjTC" opacity="1" fill-opacity="0" stroke="#000000" stroke-width="1" stroke-opacity="0"></use></g></g><g><use xlink:href="#icMXl93sQ" opacity="1" fill="#000000" fill-opacity="0"></use><g><use xlink:href="#icMXl93sQ" opacity="1" fill-opacity="0" stroke="#30242a" stroke-width="4" stroke-opacity="1"></use></g></g><g><use xlink:href="#cVQF86vK" opacity="1" fill="#000000" fill-opacity="0"></use><g><use xlink:href="#cVQF86vK" opacity="1" fill-opacity="0" stroke="#30242a" stroke-width="4" stroke-opacity="1"></use></g></g><g><use xlink:href="#aaTZGrYle" opacity="1" fill="#000000" fill-opacity="0"></use><g><use xlink:href="#aaTZGrYle" opacity="1" fill-opacity="0" stroke="#30242a" stroke-width="4" stroke-opacity="1"></use></g></g><g><use xlink:href="#b1c9RJTA5J" opacity="1" fill="#000000" fill-opacity="0"></use><g><use xlink:href="#b1c9RJTA5J" opacity="1" fill-opacity="0" stroke="#30242a" stroke-width="4" stroke-opacity="1"></use></g></g><g><use xlink:href="#aLjP84aJi" opacity="1" fill="#000000" fill-opacity="0"></use><g><use xlink:href="#aLjP84aJi" opacity="1" fill-opacity="0" stroke="#30242a" stroke-width="4" stroke-opacity="1"></use></g></g><g><use xlink:href="#as5evvX7L" opacity="1" fill="#000000" fill-opacity="0"></use><g><use xlink:href="#as5evvX7L" opacity="1" fill-opacity="0" stroke="#30242a" stroke-width="4" stroke-opacity="1"></use></g></g><g><use xlink:href="#cwuo64gR3" opacity="1" fill="#a15842" fill-opacity="1"></use><g><use xlink:href="#cwuo64gR3" opacity="1" fill-opacity="0" stroke="#000000" stroke-width="1" stroke-opacity="0"></use></g></g><g><use xlink:href="#amCD9N9St" opacity="1" fill="#ffbe21" fill-opacity="1"></use><g><use xlink:href="#amCD9N9St" opacity="1" fill-opacity="0" stroke="#000000" stroke-width="1" stroke-opacity="0"></use></g></g><g><use xlink:href="#c5UaW7XScO" opacity="1" fill="#a15842" fill-opacity="1"></use><g><use xlink:href="#c5UaW7XScO" opacity="1" fill-opacity="0" stroke="#000000" stroke-width="1" stroke-opacity="0"></use></g></g><g><use xlink:href="#c1f7iYMqln" opacity="1" fill="#ffb7d5" fill-opacity="1"></use><g><use xlink:href="#c1f7iYMqln" opacity="1" fill-opacity="0" stroke="#000000" stroke-width="1" stroke-opacity="0"></use></g></g><g><use xlink:href="#f17hw4ji7v" opacity="1" fill="#ffb7d5" fill-opacity="1"></use><g><use xlink:href="#f17hw4ji7v" opacity="1" fill-opacity="0" stroke="#000000" stroke-width="1" stroke-opacity="0"></use></g></g><g><use xlink:href="#d27bi5YRJQ" opacity="1" fill="#ca7358" fill-opacity="1"></use><g><use xlink:href="#d27bi5YRJQ" opacity="1" fill-opacity="0" stroke="#000000" stroke-width="1" stroke-opacity="0"></use></g></g><g><use xlink:href="#ahm7XBgmd" opacity="1" fill="#f5ebdd" fill-opacity="1"></use><g><use xlink:href="#ahm7XBgmd" opacity="1" fill-opacity="0" stroke="#000000" stroke-width="1" stroke-opacity="0"></use></g></g><g><use xlink:href="#c1Bcn2y9r6" opacity="1" fill="#3ec1f3" fill-opacity="1"></use><g><use xlink:href="#c1Bcn2y9r6" opacity="1" fill-opacity="0" stroke="#000000" stroke-width="1" stroke-opacity="0"></use></g></g><g><use xlink:href="#e3K6Ty8a9" opacity="1" fill="#000000" fill-opacity="0"></use><g><use xlink:href="#e3K6Ty8a9" opacity="1" fill-opacity="0" stroke="#ca7358" stroke-width="4" stroke-opacity="1"></use></g></g><g><use xlink:href="#cAA0UBubM" opacity="1" fill="#000000" fill-opacity="0"></use><g><use xlink:href="#cAA0UBubM" opacity="1" fill-opacity="0" stroke="#f5ebdd" stroke-width="4" stroke-opacity="1"></use></g></g><g><use xlink:href="#acEWReJfo" opacity="1" fill="#000000" fill-opacity="0"></use><g><use xlink:href="#acEWReJfo" opacity="1" fill-opacity="0" stroke="#f5ebdd" stroke-width="4" stroke-opacity="1"></use></g></g><g><use xlink:href="#a1qTBwHioK" opacity="1" fill="#000000" fill-opacity="0"></use><g><use xlink:href="#a1qTBwHioK" opacity="1" fill-opacity="0" stroke="#f5ebdd" stroke-width="4" stroke-opacity="1"></use></g></g><g><use xlink:href="#aqXSNJGYZ" opacity="1" fill="#4756df" fill-opacity="1"></use><g><use xlink:href="#aqXSNJGYZ" opacity="1" fill-opacity="0" stroke="#000000" stroke-width="1" stroke-opacity="0"></use></g></g><g><use xlink:href="#b23MmCxSGQ" opacity="1" fill="#f5ebdd" fill-opacity="1"></use><g><use xlink:href="#b23MmCxSGQ" opacity="1" fill-opacity="0" stroke="#000000" stroke-width="1" stroke-opacity="0"></use></g></g><g><use xlink:href="#d1G37Bimmg" opacity="1" fill="#3ec1f3" fill-opacity="1"></use><g><use xlink:href="#d1G37Bimmg" opacity="1" fill-opacity="0" stroke="#000000" stroke-width="1" stroke-opacity="0"></use></g></g><g><use xlink:href="#b6PWVEbrl1" opacity="1" fill="#000000" fill-opacity="0"></use><g><use xlink:href="#b6PWVEbrl1" opacity="1" fill-opacity="0" stroke="#f5ebdd" stroke-width="4" stroke-opacity="1"></use></g></g><g><use xlink:href="#d8tMBFcTfA" opacity="1" fill="#000000" fill-opacity="0"></use><g><use xlink:href="#d8tMBFcTfA" opacity="1" fill-opacity="0" stroke="#f5ebdd" stroke-width="4" stroke-opacity="1"></use></g></g><g><use xlink:href="#h45vNZGcvB" opacity="1" fill="#000000" fill-opacity="0"></use><g><use xlink:href="#h45vNZGcvB" opacity="1" fill-opacity="0" stroke="#f5ebdd" stroke-width="4" stroke-opacity="1"></use></g></g><g><use xlink:href="#a4gtV63PIT" opacity="1" fill="#30242a" fill-opacity="1"></use><g><use xlink:href="#a4gtV63PIT" opacity="1" fill-opacity="0" stroke="#000000" stroke-width="1" stroke-opacity="0"></use></g></g><g><use xlink:href="#a1mez0OF7c" opacity="1" fill="#a15842" fill-opacity="1"></use><g><use xlink:href="#a1mez0OF7c" opacity="1" fill-opacity="0" stroke="#000000" stroke-width="1" stroke-opacity="0"></use></g></g><g><use xlink:href="#baWSy1eFc" opacity="1" fill="#a15842" fill-opacity="1"></use><g><use xlink:href="#baWSy1eFc" opacity="1" fill-opacity="0" stroke="#000000" stroke-width="1" stroke-opacity="0"></use></g></g><g><use xlink:href="#b4iyFfjAq" opacity="1" fill="#ffb7d5" fill-opacity="1"></use><g><use xlink:href="#b4iyFfjAq" opacity="1" fill-opacity="0" stroke="#000000" stroke-width="1" stroke-opacity="0"></use></g></g><g><use xlink:href="#a2h2Jw5uPn" opacity="1" fill="#ca7358" fill-opacity="1"></use><g><use xlink:href="#a2h2Jw5uPn" opacity="1" fill-opacity="0" stroke="#000000" stroke-width="1" stroke-opacity="0"></use></g></g><g><use xlink:href="#c3lXDbdAwj" opacity="1" fill="#000000" fill-opacity="0"></use><g><use xlink:href="#c3lXDbdAwj" opacity="1" fill-opacity="0" stroke="#ca7358" stroke-width="4" stroke-opacity="1"></use></g></g><g><use xlink:href="#d2msdYT8" opacity="1" fill="#30242a" fill-opacity="1"></use><g><use xlink:href="#d2msdYT8" opacity="1" fill-opacity="0" stroke="#000000" stroke-width="1" stroke-opacity="0"></use></g></g><g><use xlink:href="#baYSzhopZ" opacity="1" fill="#30242a" fill-opacity="1"></use><g><use xlink:href="#baYSzhopZ" opacity="1" fill-opacity="0" stroke="#000000" stroke-width="1" stroke-opacity="0"></use></g></g><g><use xlink:href="#bGYTx9Hg1" opacity="1" fill="#4756df" fill-opacity="1"></use><g><use xlink:href="#bGYTx9Hg1" opacity="1" fill-opacity="0" stroke="#000000" stroke-width="1" stroke-opacity="0"></use></g></g><g><use xlink:href="#a1AujsUsdc" opacity="1" fill="#3ec1f3" fill-opacity="1"></use><g><use xlink:href="#a1AujsUsdc" opacity="1" fill-opacity="0" stroke="#000000" stroke-width="1" stroke-opacity="0"></use></g></g><g><use xlink:href="#a1fH6PNQId" opacity="1" fill="#30242a" fill-opacity="1"></use><g><use xlink:href="#a1fH6PNQId" opacity="1" fill-opacity="0" stroke="#000000" stroke-width="1" stroke-opacity="0"></use></g></g><g><use xlink:href="#cTFumndjI" opacity="1" fill="#30242a" fill-opacity="1"></use><g><use xlink:href="#cTFumndjI" opacity="1" fill-opacity="0" stroke="#000000" stroke-width="1" stroke-opacity="0"></use></g></g><g><use xlink:href="#aze4cRFtd" opacity="1" fill="#ffbe21" fill-opacity="1"></use><g><use xlink:href="#aze4cRFtd" opacity="1" fill-opacity="0" stroke="#000000" stroke-width="1" stroke-opacity="0"></use></g></g><g><use xlink:href="#fa7rxF4l4" opacity="1" fill="#ffbe21" fill-opacity="1"></use><g><use xlink:href="#fa7rxF4l4" opacity="1" fill-opacity="0" stroke="#000000" stroke-width="1" stroke-opacity="0"></use></g></g><g><use xlink:href="#lkfw9hHd1" opacity="1" fill="#30242a" fill-opacity="1"></use><g><use xlink:href="#lkfw9hHd1" opacity="1" fill-opacity="0" stroke="#000000" stroke-width="1" stroke-opacity="0"></use></g></g><g><use xlink:href="#aSTlvGjV" opacity="1" fill="#ca7358" fill-opacity="1"></use><g><use xlink:href="#aSTlvGjV" opacity="1" fill-opacity="0" stroke="#000000" stroke-width="1" stroke-opacity="0"></use></g></g><g><use xlink:href="#b1w6u9c9xQ" opacity="1" fill="#ca7358" fill-opacity="1"></use><g><use xlink:href="#b1w6u9c9xQ" opacity="1" fill-opacity="0" stroke="#000000" stroke-width="1" stroke-opacity="0"></use></g></g><g><use xlink:href="#a1hgTf4GXy" opacity="1" fill="#ca7358" fill-opacity="1"></use><g><use xlink:href="#a1hgTf4GXy" opacity="1" fill-opacity="0" stroke="#000000" stroke-width="1" stroke-opacity="0"></use></g></g><g><use xlink:href="#d5OgDJRMfD" opacity="1" fill="#30242a" fill-opacity="1"></use><g><use xlink:href="#d5OgDJRMfD" opacity="1" fill-opacity="0" stroke="#000000" stroke-width="1" stroke-opacity="0"></use></g></g><g><use xlink:href="#c3wKhTv5T9" opacity="1" fill="#ffbe21" fill-opacity="1"></use><g><use xlink:href="#c3wKhTv5T9" opacity="1" fill-opacity="0" stroke="#000000" stroke-width="1" stroke-opacity="0"></use></g></g><g><use xlink:href="#a46LYvrIzU" opacity="1" fill="#000000" fill-opacity="0"></use><g><use xlink:href="#a46LYvrIzU" opacity="1" fill-opacity="0" stroke="#30242a" stroke-width="4" stroke-opacity="1"></use></g></g><g><use xlink:href="#i2CwXHoxY" opacity="1" fill="#000000" fill-opacity="0"></use><g><use xlink:href="#i2CwXHoxY" opacity="1" fill-opacity="0" stroke="#30242a" stroke-width="4" stroke-opacity="1"></use></g></g><g><use xlink:href="#a1Z3xOBvaI" opacity="1" fill="#000000" fill-opacity="0"></use><g><use xlink:href="#a1Z3xOBvaI" opacity="1" fill-opacity="0" stroke="#30242a" stroke-width="4" stroke-opacity="1"></use></g></g><g><use xlink:href="#h2hcXHcDq" opacity="1" fill="#000000" fill-opacity="0"></use><g><use xlink:href="#h2hcXHcDq" opacity="1" fill-opacity="0" stroke="#30242a" stroke-width="4" stroke-opacity="1"></use></g></g><g><use xlink:href="#h6AbTCYHZ" opacity="1" fill="#000000" fill-opacity="0"></use><g><use xlink:href="#h6AbTCYHZ" opacity="1" fill-opacity="0" stroke="#30242a" stroke-width="4" stroke-opacity="1"></use></g></g><g><use xlink:href="#e2LSqxM3Zn" opacity="1" fill="#000000" fill-opacity="0"></use><g><use xlink:href="#e2LSqxM3Zn" opacity="1" fill-opacity="0" stroke="#30242a" stroke-width="4" stroke-opacity="1"></use></g></g><g><use xlink:href="#e9sSi6sz1" opacity="1" fill="#000000" fill-opacity="0"></use><g><use xlink:href="#e9sSi6sz1" opacity="1" fill-opacity="0" stroke="#30242a" stroke-width="4" stroke-opacity="1"></use></g></g><g><use xlink:href="#b2vNp1c53" opacity="1" fill="#000000" fill-opacity="0"></use><g><use xlink:href="#b2vNp1c53" opacity="1" fill-opacity="0" stroke="#30242a" stroke-width="4" stroke-opacity="1"></use></g></g><g><use xlink:href="#c5bMN3Os2" opacity="1" fill="#000000" fill-opacity="0"></use><g><use xlink:href="#c5bMN3Os2" opacity="1" fill-opacity="0" stroke="#30242a" stroke-width="4" stroke-opacity="1"></use></g></g><g><use xlink:href="#acjDzxoFZ" opacity="1" fill="#000000" fill-opacity="0"></use><g><use xlink:href="#acjDzxoFZ" opacity="1" fill-opacity="0" stroke="#30242a" stroke-width="4" stroke-opacity="1"></use></g></g><g><use xlink:href="#d3K4Fa6dIx" opacity="1" fill="#000000" fill-opacity="0"></use><g><use xlink:href="#d3K4Fa6dIx" opacity="1" fill-opacity="0" stroke="#30242a" stroke-width="4" stroke-opacity="1"></use></g></g><g><use xlink:href="#ciAkScrj6" opacity="1" fill="#000000" fill-opacity="0"></use><g><use xlink:href="#ciAkScrj6" opacity="1" fill-opacity="0" stroke="#30242a" stroke-width="4" stroke-opacity="1"></use></g></g><g><use xlink:href="#b11ZjULNTd" opacity="1" fill="#000000" fill-opacity="0"></use><g><use xlink:href="#b11ZjULNTd" opacity="1" fill-opacity="0" stroke="#30242a" stroke-width="4" stroke-opacity="1"></use></g></g><g><use xlink:href="#aA1PuSN3S" opacity="1" fill="#000000" fill-opacity="0"></use><g><use xlink:href="#aA1PuSN3S" opacity="1" fill-opacity="0" stroke="#a15842" stroke-width="4" stroke-opacity="1"></use></g></g><g><use xlink:href="#fzOLU0a2J" opacity="1" fill="#000000" fill-opacity="0"></use><g><use xlink:href="#fzOLU0a2J" opacity="1" fill-opacity="0" stroke="#30242a" stroke-width="4" stroke-opacity="1"></use></g></g><g><use xlink:href="#fr4uc0xU" opacity="1" fill="#f4e6d8" fill-opacity="1"></use><g><use xlink:href="#fr4uc0xU" opacity="1" fill-opacity="0" stroke="#000000" stroke-width="1" stroke-opacity="0"></use></g></g><g><use xlink:href="#a4iDkhKtBm" opacity="1" fill="#000000" fill-opacity="0"></use><g><use xlink:href="#a4iDkhKtBm" opacity="1" fill-opacity="0" stroke="#30242a" stroke-width="4" stroke-opacity="1"></use></g></g><g><use xlink:href="#b3xFku9zU" opacity="1" fill="#4856df" fill-opacity="1"></use><g><use xlink:href="#b3xFku9zU" opacity="1" fill-opacity="0" stroke="#000000" stroke-width="1" stroke-opacity="0"></use></g></g><g><use xlink:href="#c4hedxJwk" opacity="1" fill="#a15842" fill-opacity="1"></use><g><use xlink:href="#c4hedxJwk" opacity="1" fill-opacity="0" stroke="#000000" stroke-width="1" stroke-opacity="0"></use></g></g><g><use xlink:href="#b1ylTzmR2t" opacity="1" fill="#a15842" fill-opacity="1"></use><g><use xlink:href="#b1ylTzmR2t" opacity="1" fill-opacity="0" stroke="#000000" stroke-width="1" stroke-opacity="0"></use></g></g><g><use xlink:href="#aCE9fSdSf" opacity="1" fill="#3ec1f3" fill-opacity="1"></use><g><use xlink:href="#aCE9fSdSf" opacity="1" fill-opacity="0" stroke="#000000" stroke-width="1" stroke-opacity="0"></use></g></g><g><use xlink:href="#a1dhMJDWMT" opacity="1" fill="#3ec1f3" fill-opacity="1"></use><g><use xlink:href="#a1dhMJDWMT" opacity="1" fill-opacity="0" stroke="#000000" stroke-width="1" stroke-opacity="0"></use></g></g><g><use xlink:href="#aADaQmET3" opacity="1" fill="#000000" fill-opacity="0"></use><g><use xlink:href="#aADaQmET3" opacity="1" fill-opacity="0" stroke="#3ec1f3" stroke-width="4" stroke-opacity="1"></use></g></g><g><use xlink:href="#b7c1lQG0hL" opacity="1" fill="#000000" fill-opacity="0"></use><g><use xlink:href="#b7c1lQG0hL" opacity="1" fill-opacity="0" stroke="#30242a" stroke-width="4" stroke-opacity="1"></use></g></g><g><use xlink:href="#dhUMs8R1C" opacity="1" fill="#000000" fill-opacity="0"></use><g><use xlink:href="#dhUMs8R1C" opacity="1" fill-opacity="0" stroke="#30242a" stroke-width="4" stroke-opacity="1"></use></g></g><g><use xlink:href="#aq19X2Dtw" opacity="1" fill="#000000" fill-opacity="0"></use><g><use xlink:href="#aq19X2Dtw" opacity="1" fill-opacity="0" stroke="#30242a" stroke-width="4" stroke-opacity="1"></use></g></g><g><use xlink:href="#aUMTbiEPP" opacity="1" fill="#000000" fill-opacity="0"></use><g><use xlink:href="#aUMTbiEPP" opacity="1" fill-opacity="0" stroke="#30242a" stroke-width="4" stroke-opacity="1"></use></g></g><g><use xlink:href="#ajQaOXkNS" opacity="1" fill="#4856df" fill-opacity="1"></use><g><use xlink:href="#ajQaOXkNS" opacity="1" fill-opacity="0" stroke="#000000" stroke-width="1" stroke-opacity="0"></use></g></g><g><use xlink:href="#evt7DfU24" opacity="1" fill="#ca7358" fill-opacity="1"></use><g><use xlink:href="#evt7DfU24" opacity="1" fill-opacity="0" stroke="#000000" stroke-width="1" stroke-opacity="0"></use></g></g><g><use xlink:href="#a2DQmeYbG" opacity="1" fill="#3ec1f3" fill-opacity="1"></use><g><use xlink:href="#a2DQmeYbG" opacity="1" fill-opacity="0" stroke="#000000" stroke-width="1" stroke-opacity="0"></use></g></g><g><use xlink:href="#a5qFIOfMO" opacity="1" fill="#000000" fill-opacity="0"></use><g><use xlink:href="#a5qFIOfMO" opacity="1" fill-opacity="0" stroke="#30242a" stroke-width="4" stroke-opacity="1"></use></g></g><g><use xlink:href="#aebDMS3M1" opacity="1" fill="#000000" fill-opacity="0"></use><g><use xlink:href="#aebDMS3M1" opacity="1" fill-opacity="0" stroke="#30242a" stroke-width="4" stroke-opacity="1"></use></g></g><g><use xlink:href="#b3nXcFNQuR" opacity="1" fill="#000000" fill-opacity="0"></use><g><use xlink:href="#b3nXcFNQuR" opacity="1" fill-opacity="0" stroke="#30242a" stroke-width="4" stroke-opacity="1"></use></g></g><g><use xlink:href="#b1fIJRqMAn" opacity="1" fill="#000000" fill-opacity="0"></use><g><use xlink:href="#b1fIJRqMAn" opacity="1" fill-opacity="0" stroke="#30242a" stroke-width="4" stroke-opacity="1"></use></g></g><g><use xlink:href="#fTnk4hh3E" opacity="1" fill="#000000" fill-opacity="0"></use><g><use xlink:href="#fTnk4hh3E" opacity="1" fill-opacity="0" stroke="#30242a" stroke-width="4" stroke-opacity="1"></use></g></g><g><use xlink:href="#ep6TeCIhZ" opacity="1" fill="#30242a" fill-opacity="1"></use><g><use xlink:href="#ep6TeCIhZ" opacity="1" fill-opacity="0" stroke="#000000" stroke-width="1" stroke-opacity="0"></use></g></g><g><use xlink:href="#aQ4P4glOV" opacity="1" fill="#30242a" fill-opacity="1"></use><g><use xlink:href="#aQ4P4glOV" opacity="1" fill-opacity="0" stroke="#000000" stroke-width="1" stroke-opacity="0"></use></g></g><g><use xlink:href="#bU3vfluAd" opacity="1" fill="#ffbe21" fill-opacity="1"></use><g><use xlink:href="#bU3vfluAd" opacity="1" fill-opacity="0" stroke="#000000" stroke-width="1" stroke-opacity="0"></use></g></g><g><use xlink:href="#c63tjMlAtZ" opacity="1" fill="#30242a" fill-opacity="1"></use><g><use xlink:href="#c63tjMlAtZ" opacity="1" fill-opacity="0" stroke="#000000" stroke-width="1" stroke-opacity="0"></use></g></g><g><use xlink:href="#bwuWoH8Y1" opacity="1" fill="#000000" fill-opacity="0"></use><g><use xlink:href="#bwuWoH8Y1" opacity="1" fill-opacity="0" stroke="#30242a" stroke-width="4" stroke-opacity="1"></use></g></g><g><use xlink:href="#a21waizmg" opacity="1" fill="#30242a" fill-opacity="1"></use><g><use xlink:href="#a21waizmg" opacity="1" fill-opacity="0" stroke="#000000" stroke-width="1" stroke-opacity="0"></use></g></g><g><use xlink:href="#ceEfB8989" opacity="1" fill="#ffbe21" fill-opacity="1"></use><g><use xlink:href="#ceEfB8989" opacity="1" fill-opacity="0" stroke="#000000" stroke-width="1" stroke-opacity="0"></use></g></g><g><use xlink:href="#biH3tstuu" opacity="1" fill="#30242a" fill-opacity="1"></use><g><use xlink:href="#biH3tstuu" opacity="1" fill-opacity="0" stroke="#000000" stroke-width="1" stroke-opacity="0"></use></g></g><g><use xlink:href="#cHrOoHmyY" opacity="1" fill="#ffbe21" fill-opacity="1"></use><g><use xlink:href="#cHrOoHmyY" opacity="1" fill-opacity="0" stroke="#000000" stroke-width="1" stroke-opacity="0"></use></g></g><g><use xlink:href="#dFjA2Am0b" opacity="1" fill="#f5ebdd" fill-opacity="1"></use><g><use xlink:href="#dFjA2Am0b" opacity="1" fill-opacity="0" stroke="#000000" stroke-width="1" stroke-opacity="0"></use></g></g><g><use xlink:href="#agBC6Wqoy" opacity="1" fill="#30242a" fill-opacity="1"></use><g><use xlink:href="#agBC6Wqoy" opacity="1" fill-opacity="0" stroke="#000000" stroke-width="1" stroke-opacity="0"></use></g></g></g></svg>